HIERARCHY
ROOT Root
{
  OFFSET 0.0 0.0 0.0
  CHANNELS 6 Xposition Yposition Zposition Zrotation Yrotation Xrotation
  JOINT Hips
  {
    OFFSET 0.0 100.0 0.0
    CHANNELS 6 Xposition Yposition Zposition Zrotation Yrotation Xrotation
    JOINT Spine1
    {
      OFFSET -0.013727 5.003763 -0.053727
      CHANNELS 3 Zrotation Yrotation Xrotation
      JOINT Spine2
      {
        OFFSET -0.0 7.125301 -0.029825
        CHANNELS 3 Zrotation Yrotation Xrotation
        JOINT Chest
        {
          OFFSET -1e-06 7.550063 -0.815971
          CHANNELS 3 Zrotation Yrotation Xrotation
          JOINT Neck1
          {
            OFFSET -0.181677 26.311295 -0.553348
            CHANNELS 3 Zrotation Yrotation Xrotation
            JOINT Neck2
            {
              OFFSET -3e-06 7.709397 2.302585
              CHANNELS 3 Zrotation Yrotation Xrotation
              JOINT Head
              {
                OFFSET -5e-06 6.128916 1.953709
                CHANNELS 3 Zrotation Yrotation Xrotation
                JOINT HeadEnd
                {
                  OFFSET 0.003598 16.065403 -1.835379
                  CHANNELS 3 Zrotation Yrotation Xrotation
                }
                JOINT Jaw
                {
                  OFFSET 0.002637 0.475592 3.094941
                  CHANNELS 3 Zrotation Yrotation Xrotation
                }
                JOINT LeftEye
                {
                  OFFSET 3.206381 5.380205 7.586883
                  CHANNELS 3 Zrotation Yrotation Xrotation
                }
                JOINT RightEye
                {
                  OFFSET -3.22244 5.361869 7.558234
                  CHANNELS 3 Zrotation Yrotation Xrotation
                }
              }
            }
          }
          JOINT LeftShoulder
          {
            OFFSET 1.621652 23.237164 5.113413
            CHANNELS 3 Zrotation Yrotation Xrotation
            JOINT LeftArm
            {
              OFFSET 14.919846 2e-06 -5.502326
              CHANNELS 3 Zrotation Yrotation Xrotation
              JOINT LeftForeArm
              {
                OFFSET 28.739307 0.0 -0.002588
                CHANNELS 3 Zrotation Yrotation Xrotation
                JOINT LeftHand
                {
                  OFFSET 27.093981 -1e-06 0.002609
                  CHANNELS 3 Zrotation Yrotation Xrotation
                  JOINT LeftHandThumb1
                  {
                    OFFSET 2.276482 -1.392045 3.191413
                    CHANNELS 3 Zrotation Yrotation Xrotation
                    JOINT LeftHandThumb2
                    {
                      OFFSET 4.012836 -1.828127 1.641654
                      CHANNELS 3 Zrotation Yrotation Xrotation
                      JOINT LeftHandThumb3
                      {
                        OFFSET 2.798515 0.0 -3e-06
                        CHANNELS 3 Zrotation Yrotation Xrotation
                        JOINT LeftHandThumbEnd
                        {
                          OFFSET 3.180793 -4e-06 4e-06
                          CHANNELS 3 Zrotation Yrotation Xrotation
                        }
                      }
                    }
                  }
                  JOINT LeftHandIndex1
                  {
                    OFFSET 3.247555 -0.531998 2.296169
                    CHANNELS 3 Zrotation Yrotation Xrotation
                    JOINT LeftHandIndex2
                    {
                      OFFSET 6.364578 0.01206 0.1786
                      CHANNELS 3 Zrotation Yrotation Xrotation
                      JOINT LeftHandIndex3
                      {
                        OFFSET 3.662364 0.0 0.0
                        CHANNELS 3 Zrotation Yrotation Xrotation
                        JOINT LeftHandIndex4
                        {
                          OFFSET 2.329242 4e-06 4e-06
                          CHANNELS 3 Zrotation Yrotation Xrotation
                          JOINT LeftHandIndexEnd
                          {
                            OFFSET 2.759615 -0.180537 -0.113024
                            CHANNELS 3 Zrotation Yrotation Xrotation
                          }
                        }
                      }
                    }
                  }
                  JOINT LeftHandMiddle1
                  {
                    OFFSET 3.163495 0.240981 1.000332
                    CHANNELS 3 Zrotation Yrotation Xrotation
                    JOINT LeftHandMiddle2
                    {
                      OFFSET 6.19078 -0.259278 -1.002548
                      CHANNELS 3 Zrotation Yrotation Xrotation
                      JOINT LeftHandMiddle3
                      {
                        OFFSET 4.35652 -4e-06 -1e-06
                        CHANNELS 3 Zrotation Yrotation Xrotation
                        JOINT LeftHandMiddle4
                        {
                          OFFSET 2.996877 -8e-06 0.0
                          CHANNELS 3 Zrotation Yrotation Xrotation
                          JOINT LeftHandMiddleEnd
                          {
                            OFFSET 2.304287 -0.294569 -0.031741
                            CHANNELS 3 Zrotation Yrotation Xrotation
                          }
                        }
                      }
                    }
                  }
                  JOINT LeftHandRing1
                  {
                    OFFSET 2.882643 -0.053652 -0.322543
                    CHANNELS 3 Zrotation Yrotation Xrotation
                    JOINT LeftHandRing2
                    {
                      OFFSET 5.854541 -0.486202 -1.373841
                      CHANNELS 3 Zrotation Yrotation Xrotation
                      JOINT LeftHandRing3
                      {
                        OFFSET 4.350578 0.0 3e-06
                        CHANNELS 3 Zrotation Yrotation Xrotation
                        JOINT LeftHandRing4
                        {
                          OFFSET 2.651321 7e-06 2e-06
                          CHANNELS 3 Zrotation Yrotation Xrotation
                          JOINT LeftHandRingEnd
                          {
                            OFFSET 1.936105 0.077687 -7.1e-05
                            CHANNELS 3 Zrotation Yrotation Xrotation
                          }
                        }
                      }
                    }
                  }
                  JOINT LeftHandPinky1
                  {
                    OFFSET 2.8655 -0.310005 -1.600378
                    CHANNELS 3 Zrotation Yrotation Xrotation
                    JOINT LeftHandPinky2
                    {
                      OFFSET 5.087849 -1.331141 -1.77123
                      CHANNELS 3 Zrotation Yrotation Xrotation
                      JOINT LeftHandPinky3
                      {
                        OFFSET 3.070974 4e-06 0.0
                        CHANNELS 3 Zrotation Yrotation Xrotation
                        JOINT LeftHandPinky4
                        {
                          OFFSET 1.549672 0.0 1e-06
                          CHANNELS 3 Zrotation Yrotation Xrotation
                          JOINT LeftHandPinkyEnd
                          {
                            OFFSET 1.944893 -0.157802 0.057219
                            CHANNELS 3 Zrotation Yrotation Xrotation
                          }
                        }
                      }
                    }
                  }
                }
              }
            }
          }
          JOINT RightShoulder
          {
            OFFSET -1.380118 23.180309 5.214158
            CHANNELS 3 Zrotation Yrotation Xrotation
            JOINT RightArm
            {
              OFFSET -15.037196 1.2e-05 -5.545604
              CHANNELS 3 Zrotation Yrotation Xrotation
              JOINT RightForeArm
              {
                OFFSET -28.736639 2e-06 -0.002597
                CHANNELS 3 Zrotation Yrotation Xrotation
                JOINT RightHand
                {
                  OFFSET -27.133619 -0.0 0.002613
                  CHANNELS 3 Zrotation Yrotation Xrotation
                  JOINT RightHandThumb1
                  {
                    OFFSET -2.274032 -1.383988 3.163127
                    CHANNELS 3 Zrotation Yrotation Xrotation
                    JOINT RightHandThumb2
                    {
                      OFFSET -4.011429 -1.827466 1.640914
                      CHANNELS 3 Zrotation Yrotation Xrotation
                      JOINT RightHandThumb3
                      {
                        OFFSET -2.794935 -4e-06 -3e-06
                        CHANNELS 3 Zrotation Yrotation Xrotation
                        JOINT RightHandThumbEnd
                        {
                          OFFSET -3.183852 4e-06 1e-06
                          CHANNELS 3 Zrotation Yrotation Xrotation
                        }
                      }
                    }
                  }
                  JOINT RightHandIndex1
                  {
                    OFFSET -3.253266 -0.520057 2.282866
                    CHANNELS 3 Zrotation Yrotation Xrotation
                    JOINT RightHandIndex2
                    {
                      OFFSET -6.341917 0.012471 0.178266
                      CHANNELS 3 Zrotation Yrotation Xrotation
                      JOINT RightHandIndex3
                      {
                        OFFSET -3.654871 -8e-06 -0.0
                        CHANNELS 3 Zrotation Yrotation Xrotation
                        JOINT RightHandIndex4
                        {
                          OFFSET -2.327586 0.0 1e-06
                          CHANNELS 3 Zrotation Yrotation Xrotation
                          JOINT RightHandIndexEnd
                          {
                            OFFSET -2.76179 -0.180656 -0.113078
                            CHANNELS 3 Zrotation Yrotation Xrotation
                          }
                        }
                      }
                    }
                  }
                  JOINT RightHandMiddle1
                  {
                    OFFSET -3.168106 0.246593 1.00103
                    CHANNELS 3 Zrotation Yrotation Xrotation
                    JOINT RightHandMiddle2
                    {
                      OFFSET -6.180828 -0.258836 -1.000895
                      CHANNELS 3 Zrotation Yrotation Xrotation
                      JOINT RightHandMiddle3
                      {
                        OFFSET -4.348901 0.0 -0.0
                        CHANNELS 3 Zrotation Yrotation Xrotation
                        JOINT RightHandMiddle4
                        {
                          OFFSET -3.00024 -4e-06 -2e-06
                          CHANNELS 3 Zrotation Yrotation Xrotation
                          JOINT RightHandMiddleEnd
                          {
                            OFFSET -2.30252 -0.29437 -0.031706
                            CHANNELS 3 Zrotation Yrotation Xrotation
                          }
                        }
                      }
                    }
                  }
                  JOINT RightHandRing1
                  {
                    OFFSET -2.88569 -0.067952 -0.308858
                    CHANNELS 3 Zrotation Yrotation Xrotation
                    JOINT RightHandRing2
                    {
                      OFFSET -5.854198 -0.48613 -1.373731
                      CHANNELS 3 Zrotation Yrotation Xrotation
                      JOINT RightHandRing3
                      {
                        OFFSET -4.33881 -4e-06 -0.0
                        CHANNELS 3 Zrotation Yrotation Xrotation
                        JOINT RightHandRing4
                        {
                          OFFSET -2.654903 -4e-06 4e-06
                          CHANNELS 3 Zrotation Yrotation Xrotation
                          JOINT RightHandRingEnd
                          {
                            OFFSET -1.933568 0.077527 -5.2e-05
                            CHANNELS 3 Zrotation Yrotation Xrotation
                          }
                        }
                      }
                    }
                  }
                  JOINT RightHandPinky1
                  {
                    OFFSET -2.866425 -0.342796 -1.584145
                    CHANNELS 3 Zrotation Yrotation Xrotation
                    JOINT RightHandPinky2
                    {
                      OFFSET -5.091371 -1.332055 -1.772385
                      CHANNELS 3 Zrotation Yrotation Xrotation
                      JOINT RightHandPinky3
                      {
                        OFFSET -3.062664 -4e-06 1e-06
                        CHANNELS 3 Zrotation Yrotation Xrotation
                        JOINT RightHandPinky4
                        {
                          OFFSET -1.546529 4e-06 -2e-06
                          CHANNELS 3 Zrotation Yrotation Xrotation
                          JOINT RightHandPinkyEnd
                          {
                            OFFSET -1.945119 -0.157718 0.057211
                            CHANNELS 3 Zrotation Yrotation Xrotation
                          }
                        }
                      }
                    }
                  }
                }
              }
            }
          }
        }
      }
    }
    JOINT LeftLeg
    {
      OFFSET 10.043214 -8.434526 2.595655
      CHANNELS 3 Zrotation Yrotation Xrotation
      JOINT LeftShin
      {
        OFFSET -1e-06 -43.221752 -0.802913
        CHANNELS 3 Zrotation Yrotation Xrotation
        JOINT LeftFoot
        {
          OFFSET 1e-06 -42.155094 -3.481523
          CHANNELS 3 Zrotation Yrotation Xrotation
          JOINT LeftToeBase
          {
            OFFSET 0.0 -5.059472 13.231529
            CHANNELS 3 Zrotation Yrotation Xrotation
            JOINT LeftToeEnd
            {
              OFFSET -0.009607 -1.647619 6.513017
              CHANNELS 3 Zrotation Yrotation Xrotation
            }
          }
        }
      }
    }
    JOINT RightLeg
    {
      OFFSET -10.047278 -8.29526 2.620317
      CHANNELS 3 Zrotation Yrotation Xrotation
      JOINT RightShin
      {
        OFFSET 1e-06 -43.362206 -0.805556
        CHANNELS 3 Zrotation Yrotation Xrotation
        JOINT RightFoot
        {
          OFFSET 2e-06 -42.117393 -3.478398
          CHANNELS 3 Zrotation Yrotation Xrotation
          JOINT RightToeBase
          {
            OFFSET -0.0 -5.079609 13.284196
            CHANNELS 3 Zrotation Yrotation Xrotation
            JOINT RightToeEnd
            {
              OFFSET 0.009532 -1.634378 6.460591
              CHANNELS 3 Zrotation Yrotation Xrotation
            }
          }
        }
      }
    }
  }
}
MOTION
Frames: 4
Frame Time: 0.03333333333333333
0.0 0.0 0.0 0.0 -0.0 0.0 2.214553 112.628662 158.077774 -2.999075 19.140686 -4.776669 2.491948 -0.009167 9.641943 0.045638 0.423049 -1.584048 4.04592 -0.682391 29.92547 6.405839 -4.624156 42.129814 -1.643355 -3.661222 -3.234076 0.226626 -5.14383 -0.727095 7.7e-05 -2.2e-05 6e-06 0.252269 -0.090082 -0.047765 0.893439 -3.618262 -10.200678 -0.387514 3.433068 -10.256118 1.250355 -10.291856 19.592556 -59.680786 -9.423532 14.161863 1.492185 -32.910114 -1.235699 5.970307 1.578917 -10.889228 -5.882102 9.861279 0.70259 -10.936858 -0.360574 7.156195 0.0 8.774814 0.0 -15.770638 17.625669 5.888303 -1.844031 2.498503 -2.507276 -10.163589 4.678941 4.621103 -20.975994 -0.0 1e-06 -21.226252 2.451699 -3.593994 0.0 -6e-06 -0.0 -1.36268 2.240796 -0.746323 -21.334888 0.58491 3.008318 -13.821193 -1e-06 1e-06 -23.887127 -0.249074 -0.839485 -57.12822 2.327785 -0.660565 -0.294025 1.679686 0.833255 -14.218191 0.093216 1.300578 -34.211994 -0.28756 0.967166 -20.033173 0.964536 1.212838 -0.0 0.0 0.0 -3.440386 0.788233 0.501655 -15.928168 -3.167305 2.999702 -6.338816 -0.0 0.0 -18.123415 3.64818 -4.905661 -4e-06 0.0 -2e-06 17.296694 16.701454 24.868176 34.477402 29.314447 13.986551 0.035568 28.882641 0.139468 -14.386765 -2.760648 -8.06724 2.24354 -5.255033 -3.180155 14.282875 -0.826595 6.952495 0.0 -12.690593 -1e-06 15.730933 -16.618885 2.08163 1.665665 -1.95592 -2.878296 4.727794 -4.170584 4.993918 11.020509 0.0 -0.0 12.109029 -3.735715 -2.866777 -0.0 0.0 -0.0 1.291984 -1.928548 -1.498088 14.800112 0.567466 3.865604 14.242552 -1.341739 -6.660646 19.631929 0.14392 -0.648243 47.364578 -0.539396 -6.120866 0.353029 -1.511149 -0.03194 20.222765 3.684304 2.316628 18.787243 0.0 -0.0 10.751607 -0.47987 1.397902 0.0 0.0 0.0 3.273804 0.305947 -0.58011 21.486788 11.830361 2.266131 8.162914 -0.0 -0.0 18.399046 -3.798986 -4.940566 3e-06 0.0 -1e-06 13.493398 -15.650906 -25.666494 -1.177453 -1.192182 41.793663 -2.286888 4.528448 -6.712471 1.533812 -1.955812 -3.365868 0.0 -0.0 2e-06 7.109776 -22.792488 -10.63494 2.107093 -2.529171 58.424427 -4.512679 3.388699 -14.213346 -1.353777 0.781564 -21.195314 0.0 -0.0 -1e-06 
0.0 0.0 0.0 0.0 -0.0 0.0 2.620942 112.447807 160.765015 -3.128578 18.603464 -5.083799 2.417052 0.058092 9.0813 0.014105 0.722166 -1.852492 4.188689 -0.291543 29.471943 6.364711 -4.632255 42.040951 -1.654112 -3.629347 -3.279912 0.064804 -5.242521 -1.217529 7.7e-05 -2.2e-05 6e-06 0.221329 -0.089592 -0.038524 0.859616 -3.610605 -10.137147 -0.416701 3.428235 -10.197988 1.090682 -9.114358 19.827225 -59.064423 -6.6972 14.771857 1.647433 -33.57896 -1.267361 5.513767 2.050757 -9.59144 -5.882102 9.861279 0.70259 -10.936858 -0.360574 7.156195 0.0 8.774814 0.0 -15.566225 17.529072 5.917717 -1.844031 2.498503 -2.507276 -10.163589 4.678941 4.621103 -20.975994 -0.0 1e-06 -21.226252 2.451699 -3.593994 0.0 -6e-06 -0.0 -1.36268 2.240796 -0.746323 -21.334888 0.58491 3.008318 -13.821193 -1e-06 1e-06 -23.887127 -0.249074 -0.839485 -56.607292 2.365267 -0.660028 -0.294025 1.679686 0.833255 -14.218191 0.093216 1.300578 -34.211994 -0.28756 0.967166 -20.033173 0.964536 1.212838 -0.0 0.0 0.0 -3.440386 0.788233 0.501655 -15.928168 -3.167305 2.999702 -6.338816 -0.0 0.0 -18.123415 3.64818 -4.905661 -4e-06 0.0 -2e-06 17.460686 16.752956 25.158953 33.523087 27.245502 14.192292 -0.087929 29.732763 0.083145 -13.976067 -2.581777 -8.381072 2.24354 -5.255033 -3.180155 14.282875 -0.826595 6.952495 0.0 -12.690593 -1e-06 15.681792 -16.56609 2.039178 1.665665 -1.95592 -2.878296 4.727794 -4.170584 4.993918 11.020509 0.0 -0.0 12.109029 -3.735715 -2.866777 -0.0 0.0 -0.0 1.291984 -1.928548 -1.498088 14.800112 0.567466 3.865604 14.242552 -1.341739 -6.660646 19.631929 0.14392 -0.648243 47.130775 -0.548978 -6.137384 0.353029 -1.511149 -0.03194 20.222765 3.684304 2.316628 18.787243 0.0 -0.0 10.751607 -0.47987 1.397902 0.0 0.0 0.0 3.273804 0.305947 -0.58011 21.486788 11.830361 2.266131 8.162914 -0.0 -0.0 18.399046 -3.798986 -4.940566 3e-06 0.0 -1e-06 13.259039 -17.571796 -25.957275 -1.170245 -1.400941 35.402325 -0.71572 4.875123 -4.710879 1.522038 -1.939634 -3.298795 0.0 -0.0 2e-06 6.436243 -23.044632 -8.67304 2.269502 -2.664282 59.440166 -4.95283 3.899435 -14.235332 -1.353694 0.771102 -23.164288 0.0 -0.0 -1e-06 
0.0 0.0 0.0 0.0 -0.0 0.0 3.074278 112.09301 163.39415 -3.194886 18.063112 -5.442367 2.354032 0.109149 8.543572 -0.011409 0.992927 -2.124342 4.29993 0.137213 29.121735 6.288332 -4.618257 42.028492 -1.699322 -3.613328 -3.318055 -0.137855 -5.288293 -1.634293 7.7e-05 -2.2e-05 6e-06 0.183634 -0.085895 -0.03421 0.82169 -3.591717 -10.055749 -0.455022 3.41853 -10.126079 1.042608 -7.886819 20.072994 -58.482109 -3.980406 15.248913 1.804502 -34.277802 -1.338786 4.935736 2.541336 -8.099809 -5.882102 9.861279 0.70259 -10.936858 -0.360574 7.156195 0.0 8.774814 0.0 -15.352107 17.39369 5.949284 -1.844031 2.498503 -2.507276 -10.163589 4.678941 4.621103 -20.975994 -0.0 1e-06 -21.226252 2.451699 -3.593994 0.0 -6e-06 -0.0 -1.36268 2.240796 -0.746323 -21.334888 0.58491 3.008318 -13.821193 -1e-06 1e-06 -23.887127 -0.249074 -0.839485 -56.061615 2.384778 -0.6917 -0.294025 1.679686 0.833255 -14.218191 0.093216 1.300578 -34.211994 -0.28756 0.967166 -20.033173 0.964536 1.212838 -0.0 0.0 0.0 -3.440386 0.788233 0.501655 -15.928168 -3.167305 2.999702 -6.338816 -0.0 0.0 -18.123415 3.64818 -4.905661 -4e-06 0.0 -2e-06 17.511765 16.811653 25.433113 32.675793 25.266859 14.4049 -0.120339 30.268538 0.066668 -13.475041 -2.462438 -8.371643 2.24354 -5.255033 -3.180155 14.282875 -0.826595 6.952495 0.0 -12.690593 -1e-06 15.666111 -16.527225 1.994158 1.665665 -1.95592 -2.878296 4.727794 -4.170584 4.993918 11.020509 0.0 -0.0 12.109029 -3.735715 -2.866777 -0.0 0.0 -0.0 1.291984 -1.928548 -1.498088 14.800112 0.567466 3.865604 14.242552 -1.341739 -6.660646 19.631929 0.14392 -0.648243 46.935413 -0.55502 -6.137606 0.353029 -1.511149 -0.03194 20.222765 3.684304 2.316628 18.787243 0.0 -0.0 10.751607 -0.47987 1.397902 0.0 0.0 0.0 3.273804 0.305947 -0.58011 21.486788 11.830361 2.266131 8.162914 -0.0 -0.0 18.399046 -3.798986 -4.940566 3e-06 0.0 -1e-06 12.845271 -19.232767 -25.843716 -1.147487 -1.609513 28.925373 0.789727 4.551827 -2.298244 1.519059 -1.936631 -3.197424 0.0 -0.0 2e-06 5.677374 -23.107046 -6.660183 2.447332 -2.829042 60.627335 -5.209035 4.354099 -14.117538 -1.3513 0.760835 -25.200993 0.0 -0.0 -1e-06 
0.0 0.0 0.0 0.0 -0.0 0.0 3.558728 111.531197 166.045975 -3.138184 17.427921 -5.838001 2.296466 0.161757 8.10282 -0.017747 1.263001 -2.380684 4.31916 0.634345 28.879871 6.141325 -4.569307 42.125481 -1.789418 -3.578846 -3.342673 -0.388218 -5.25222 -1.940504 7.7e-05 -2.2e-05 6e-06 0.138597 -0.077766 -0.032025 0.782704 -3.569678 -9.986065 -0.506541 3.413709 -10.070016 1.106003 -6.579458 20.318697 -57.808399 -1.189919 15.618601 2.037365 -35.252144 -1.472705 4.198444 3.002704 -6.532872 -5.882102 9.861279 0.70259 -10.936858 -0.360574 7.156195 0.0 8.774814 0.0 -15.130383 17.259163 5.979678 -1.844031 2.498503 -2.507276 -10.163589 4.678941 4.621103 -20.975994 -0.0 1e-06 -21.226252 2.451699 -3.593994 0.0 -6e-06 -0.0 -1.36268 2.240796 -0.746323 -21.334888 0.58491 3.008318 -13.821193 -1e-06 1e-06 -23.887127 -0.249074 -0.839485 -55.490055 2.395729 -0.788929 -0.294025 1.679686 0.833255 -14.218191 0.093216 1.300578 -34.211994 -0.28756 0.967166 -20.033173 0.964536 1.212838 -0.0 0.0 0.0 -3.440386 0.788233 0.501655 -15.928168 -3.167305 2.999702 -6.338816 -0.0 0.0 -18.123415 3.64818 -4.905661 -4e-06 0.0 -2e-06 17.283852 16.901766 25.66083 32.052841 23.461657 14.608653 -0.058584 30.559793 0.099808 -12.942721 -2.390998 -8.172213 2.24354 -5.255033 -3.180155 14.282875 -0.826595 6.952495 0.0 -12.690593 -1e-06 15.688621 -16.499968 1.95659 1.665665 -1.95592 -2.878296 4.727794 -4.170584 4.993918 11.020509 0.0 -0.0 12.109029 -3.735715 -2.866777 -0.0 0.0 -0.0 1.291984 -1.928548 -1.498088 14.800112 0.567466 3.865604 14.242552 -1.341739 -6.660646 19.631929 0.14392 -0.648243 46.799809 -0.55012 -6.141278 0.353029 -1.511149 -0.03194 20.222765 3.684304 2.316628 18.787243 0.0 -0.0 10.751607 -0.47987 1.397902 0.0 0.0 0.0 3.273804 0.305947 -0.58011 21.486788 11.830361 2.266131 8.162914 -0.0 -0.0 18.399046 -3.798986 -4.940566 3e-06 0.0 -1e-06 12.154865 -20.586384 -25.365273 -1.097963 -1.78908 22.671011 1.986589 3.750811 0.425284 1.51911 -1.941706 -2.953934 0.0 -0.0 2e-06 4.842878 -22.840954 -4.652175 2.637398 -3.039408 62.08601 -5.259202 4.695393 -13.92011 -1.346701 0.753469 -27.114716 0.0 -0.0 -1e-06 
